<?xml version="1.0" encoding="utf-8"?>
<!-- Generator: Adobe Illustrator 15.1.0, SVG Export Plug-In . SVG Version: 6.00 Build 0)  -->
<!DOCTYPE svg PUBLIC "-//W3C//DTD SVG 1.1//EN" "http://www.w3.org/Graphics/SVG/1.1/DTD/svg11.dtd">
<svg version="1.1" id="圖層_1" focusable="false" xmlns="http://www.w3.org/2000/svg" xmlns:xlink="http://www.w3.org/1999/xlink"
	 x="0px" y="0px" width="1920px" height="1080px" viewBox="0 0 1920 1080" enable-background="new 0 0 1920 1080"
	 xml:space="preserve">
<path fill="#4D5B70" d="M1463,477.984c8.647-22.57,13.5-47.25,13.5-72.984c0-111.797-90.703-202.5-202.5-202.5
	c-41.555,0-80.367,12.656-112.43,34.172C1103.141,135.422,994.086,67.5,869,67.5c-186.469,0-337.5,151.031-337.5,337.5
	c0,5.695,0.211,11.391,0.422,17.086C413.797,463.641,329,576.281,329,708.75c0,167.695,136.055,303.75,303.75,303.75H1409
	c149.133,0,270-120.867,270-270C1679,611.93,1586.188,502.875,1463,477.984z M1182.664,665.086L960.336,887.414
	c-13.078,13.078-34.594,13.078-47.672,0L690.336,665.086c-21.305-21.305-6.117-57.586,23.836-57.586h137.953V371.25
	c0-18.563,15.188-33.75,33.75-33.75h101.25c18.563,0,33.75,15.188,33.75,33.75V607.5h137.953
	C1188.781,607.5,1203.969,643.781,1182.664,665.086z"/>
</svg>
