<?xml version="1.0" encoding="utf-8"?>
<!-- Generator: Adobe Illustrator 15.1.0, SVG Export Plug-In . SVG Version: 6.00 Build 0)  -->
<!DOCTYPE svg PUBLIC "-//W3C//DTD SVG 1.1//EN" "http://www.w3.org/Graphics/SVG/1.1/DTD/svg11.dtd">
<svg version="1.1" id="圖層_1" focusable="false" xmlns="http://www.w3.org/2000/svg" xmlns:xlink="http://www.w3.org/1999/xlink"
	 x="0px" y="0px" width="1920px" height="1080px" viewBox="0 0 1920 1080" enable-background="new 0 0 1920 1080"
	 xml:space="preserve">
<path fill="#4D5B70" d="M1021.636,46.596c-16.748-60.708-104.287-63.535-123.271,0C799.709,379.371,588.75,469.8,588.75,704.342
	C588.75,911.988,754.8,1080,960,1080s371.25-168.012,371.25-375.658C1331.25,468.619,1120.756,380.89,1021.636,46.596z M960,945
	c-130.254,0-236.25-105.996-236.25-236.25c0-18.646,15.104-33.75,33.75-33.75s33.75,15.104,33.75,33.75
	c0,93.045,75.705,168.75,168.75,168.75c18.646,0,33.75,15.104,33.75,33.75S978.646,945,960,945z"/>
</svg>
