<?xml version="1.0" encoding="utf-8"?>
<!-- Generator: Adobe Illustrator 15.1.0, SVG Export Plug-In . SVG Version: 6.00 Build 0)  -->
<!DOCTYPE svg PUBLIC "-//W3C//DTD SVG 1.1//EN" "http://www.w3.org/Graphics/SVG/1.1/DTD/svg11.dtd">
<svg version="1.1" id="圖層_1" focusable="false" xmlns="http://www.w3.org/2000/svg" xmlns:xlink="http://www.w3.org/1999/xlink"
	 x="0px" y="0px" width="1920px" height="1080px" viewBox="0 0 1920 1080" enable-background="new 0 0 1920 1080"
	 xml:space="preserve">
<path fill="#4D5B70" d="M1538.18,809.789c-45.352-5.063-88.805-22.148-122.133-48.305c-29.742-23.414-72.141-23.836-101.672,0
	c-79.945,64.125-226.125,64.125-307.336-3.164c-28.477-23.625-69.609-19.195-98.508,3.797
	c-80.156,63.492-225.492,63.281-306.281-3.586c-28.477-23.625-70.242-18.773-99.352,4.219
	c-32.695,25.734-75.938,42.398-121.711,47.25c-16.664,1.688-28.688,16.453-28.688,33.117v67.922
	c0,19.195,16.031,35.438,35.227,33.75c60.75-5.273,118.336-24.047,167.484-54.633c119.18,72.984,288.984,71.93,405,0
	c119.18,72.984,288.984,71.93,405,0c49.148,29.953,107.367,49.148,166.852,54.422c19.195,1.688,35.227-14.555,35.227-33.75v-66.656
	C1567.5,827.297,1555.266,811.688,1538.18,809.789z M1538.18,506.039c-45.352-5.063-88.805-22.148-122.133-48.305
	c-29.742-23.414-72.141-23.836-101.672,0c-79.945,64.125-226.125,64.125-307.336-3.164c-28.477-23.625-69.609-19.195-98.508,3.797
	c-80.156,63.492-225.492,63.281-306.281-3.586c-28.477-23.625-70.242-18.773-99.352,4.219
	c-32.695,25.734-75.938,42.398-121.711,47.25c-16.664,1.688-28.688,16.453-28.688,33.117v67.922
	c0,19.195,16.031,35.438,35.227,33.75c60.75-5.273,118.336-24.047,167.484-54.633c119.18,72.984,288.984,71.93,405,0
	c119.18,72.984,288.984,71.93,405,0c49.148,29.953,107.367,49.148,166.852,54.422c19.195,1.688,35.227-14.555,35.227-33.75v-66.656
	C1567.5,523.547,1555.266,507.938,1538.18,506.039L1538.18,506.039z M1538.18,202.289c-45.352-5.273-88.805-22.148-122.133-48.305
	c-29.742-23.414-72.141-23.836-101.672,0c-79.945,64.125-226.125,64.125-307.336-3.164c-28.477-23.625-69.609-19.195-98.508,3.797
	c-80.156,63.492-225.492,63.281-306.281-3.586c-28.477-23.625-70.242-18.773-99.352,4.219
	c-32.695,25.734-75.938,42.398-121.711,47.25c-16.664,1.688-28.688,16.453-28.688,33.117v67.922
	c0,19.195,16.031,35.438,35.227,33.75c60.75-5.273,118.336-24.047,167.484-54.633c119.18,72.984,288.984,71.93,405,0
	c119.18,72.984,288.984,71.93,405,0c49.148,29.953,107.367,49.148,166.852,54.422c19.195,1.688,35.227-14.555,35.227-33.75v-66.656
	C1567.5,219.797,1555.266,204.188,1538.18,202.289L1538.18,202.289z"/>
</svg>
