<?xml version="1.0" encoding="utf-8"?>
<!-- Generator: Adobe Illustrator 15.1.0, SVG Export Plug-In . SVG Version: 6.00 Build 0)  -->
<!DOCTYPE svg PUBLIC "-//W3C//DTD SVG 1.1//EN" "http://www.w3.org/Graphics/SVG/1.1/DTD/svg11.dtd">
<svg version="1.1" id="圖層_1" focusable="false" xmlns="http://www.w3.org/2000/svg" xmlns:xlink="http://www.w3.org/1999/xlink"
	 x="0px" y="0px" width="1920px" height="1080px" viewBox="0 0 1920 1080" enable-background="new 0 0 1920 1080"
	 xml:space="preserve">
<path fill="#4D5B70" d="M1289.063,1012.5H968.438c-41.939,0-75.938-33.998-75.938-75.938V202.5H690v329.063
	c0,41.939-33.998,75.938-75.938,75.938H318.75c-18.64,0-33.75-15.11-33.75-33.75v-67.5c0-18.64,15.11-33.75,33.75-33.75H555V143.438
	c0-41.939,33.998-75.938,75.938-75.938h320.625c41.939,0,75.938,33.999,75.938,75.938V877.5H1230V548.438
	c0-41.939,33.998-75.938,75.938-75.938h295.313c18.64,0,33.75,15.11,33.75,33.75v67.5c0,18.64-15.11,33.75-33.75,33.75H1365v329.063
	C1365,978.502,1331.002,1012.5,1289.063,1012.5z"/>
</svg>
