<?xml version="1.0" encoding="utf-8"?>
<!-- Generator: Adobe Illustrator 21.1.0, SVG Export Plug-In . SVG Version: 6.00 Build 0)  -->
<svg version="1.1" id="Logo" xmlns="http://www.w3.org/2000/svg" xmlns:xlink="http://www.w3.org/1999/xlink" x="0px" y="0px"
	 viewBox="0 0 92.2 92.3" style="enable-background:new 0 0 92.2 92.3;" xml:space="preserve">
<style type="text/css">
	.st0{fill:#FFFFFF;}
</style>
<path class="st0" d="M46.1,11.6c11.2,0,12.5,0,17,0.2c4.1,0.2,6.3,0.9,7.8,1.4c2,0.8,3.4,1.7,4.8,3.1c1.5,1.5,2.4,2.9,3.1,4.8
	c0.6,1.5,1.3,3.7,1.4,7.8c0.2,4.4,0.2,5.8,0.2,17s0,12.5-0.2,17c-0.2,4.1-0.9,6.3-1.4,7.8c-0.8,2-1.7,3.4-3.1,4.8
	c-1.5,1.5-2.9,2.4-4.8,3.1c-1.5,0.6-3.7,1.3-7.8,1.4c-4.4,0.2-5.8,0.2-17,0.2s-12.5,0-17-0.2c-4.1-0.2-6.3-0.9-7.8-1.4
	c-2-0.8-3.4-1.7-4.8-3.1c-1.5-1.5-2.4-2.9-3.1-4.8c-0.6-1.5-1.3-3.7-1.4-7.8c-0.2-4.4-0.2-5.8-0.2-17s0-12.5,0.2-17
	c0.2-4.1,0.9-6.3,1.4-7.8c0.8-2,1.7-3.4,3.1-4.8c1.5-1.5,2.9-2.4,4.8-3.1c1.5-0.6,3.7-1.3,7.8-1.4C33.5,11.7,34.9,11.6,46.1,11.6
	 M46.1,4.1c-11.4,0-12.8,0-17.3,0.3c-4.5,0.2-7.5,0.9-10.2,2c-2.8,1.1-5.1,2.5-7.4,4.8s-3.8,4.7-4.8,7.4s-1.7,5.7-2,10.2
	c-0.2,4.5-0.3,5.9-0.3,17.3s0,12.8,0.3,17.3c0.2,4.5,0.9,7.5,2,10.2c1.1,2.8,2.5,5.1,4.8,7.4s4.7,3.8,7.4,4.8s5.7,1.7,10.2,2
	c4.5,0.2,5.9,0.3,17.3,0.3s12.8,0,17.3-0.3c4.5-0.2,7.5-0.9,10.2-2c2.8-1.1,5.1-2.5,7.4-4.8s3.8-4.7,4.8-7.4c1-2.7,1.7-5.7,2-10.2
	c0.2-4.5,0.3-5.9,0.3-17.3s0-12.8-0.3-17.3c-0.2-4.5-0.9-7.5-2-10.2c-1.1-2.8-2.5-5.1-4.8-7.4s-4.7-3.8-7.4-4.8
	c-2.7-1-5.7-1.7-10.2-2C58.9,4.1,57.5,4.1,46.1,4.1L46.1,4.1z M46.1,24.5c-11.9,0-21.6,9.7-21.6,21.6s9.7,21.6,21.6,21.6
	S67.7,58,67.7,46.1S58,24.5,46.1,24.5z M46.1,60.1c-7.7,0-14-6.3-14-14s6.3-14,14-14s14,6.3,14,14S53.8,60.1,46.1,60.1z M68.5,18.6
	c-2.8,0-5,2.3-5,5s2.3,5,5,5s5-2.3,5-5S71.3,18.6,68.5,18.6z"/>
</svg>
