<?xml version="1.0" encoding="utf-8"?>
<!-- Generator: Adobe Illustrator 21.1.0, SVG Export Plug-In . SVG Version: 6.00 Build 0)  -->
<svg version="1.1" id="Logo" xmlns="http://www.w3.org/2000/svg" xmlns:xlink="http://www.w3.org/1999/xlink" x="0px" y="0px"
	 viewBox="0 0 92.2 92.3" style="enable-background:new 0 0 92.2 92.3;" xml:space="preserve">
<style type="text/css">
	.st0{fill:#FFFFFF;}
</style>
<path class="st0" d="M89.1,24.7c-1-3.9-4.1-7-7.9-8c-7-1.9-35.1-1.9-35.1-1.9S18,14.8,11,16.7c-3.9,1-6.9,4.1-7.9,8
	c-1.9,7-1.9,21.8-1.9,21.8s0,14.7,1.9,21.8c1,3.9,4.1,7,7.9,8c7,1.9,35.1,1.9,35.1,1.9s28.1,0,35.1-1.9c3.9-1,6.9-4.1,7.9-8
	c1.9-7,1.9-21.8,1.9-21.8S91,31.8,89.1,24.7z M36.9,59.8V33.1l23.5,13.4L36.9,59.8z"/>
</svg>
