<?xml version="1.0" encoding="utf-8"?>
<!-- Generator: Adobe Illustrator 21.1.0, SVG Export Plug-In . SVG Version: 6.00 Build 0)  -->
<svg version="1.1" id="レイヤー_2" xmlns="http://www.w3.org/2000/svg" xmlns:xlink="http://www.w3.org/1999/xlink" x="0px"
	 y="0px" viewBox="0 0 92.2 92.3" style="enable-background:new 0 0 92.2 92.3;" xml:space="preserve">
<style type="text/css">
	.st0{fill:#FFFFFF;}
</style>
<path class="st0" d="M83.5,4.1H8.7c-2.6,0-4.6,2.1-4.6,4.6v74.7C4.1,86,6.2,88,8.7,88H49V55.6H38V42.9h11v-9.3
	c0-10.9,6.6-16.8,16.3-16.8c4.7,0,8.6,0.3,9.8,0.5v11.3h-6.7c-5.3,0-6.3,2.5-6.3,6.2v8.1h12.5L73,55.6H62.1V88h21.4v0.1
	c2.6,0,4.6-2.1,4.6-4.6V8.7C88.1,6.1,86,4.1,83.5,4.1z"/>
</svg>
